<svg xmlns="http://www.w3.org/2000/svg" viewBox="0 0 54.83 61.89"><defs><style>.cls-1{fill:none;stroke:#892c19;stroke-miterlimit:10;stroke-width:3px;}</style></defs><title>Ресурс 1</title><g id="Слой_2" data-name="Слой 2"><g id="Слой_1-2" data-name="Слой 1"><path class="cls-1" d="M22.12,56.62a3.77,3.77,0,1,1-3.77-3.77A3.77,3.77,0,0,1,22.12,56.62Z"/><circle class="cls-1" cx="47.18" cy="54.68" r="3.22"/><polygon class="cls-1" points="48.13 35.01 17.6 35.01 12.94 15.32 52.92 15.32 48.13 35.01"/><path class="cls-1" d="M18.71,56.09l4.63-4.63H49a3.93,3.93,0,0,0,3.94-3.94h0a3.94,3.94,0,0,0-3.94-4H19.63L9.67,1.5H0"/><line class="cls-1" x1="14.58" y1="21.64" x2="40.12" y2="21.64"/><line class="cls-1" x1="16" y1="28.24" x2="32.93" y2="28.24"/></g></g></svg>