<svg xmlns="http://www.w3.org/2000/svg" viewBox="0 0 59.08 66.15"><defs><style>.cls-1{fill:none;stroke:#892c19;stroke-miterlimit:10;stroke-width:3px;}</style></defs><title>Ресурс 1</title><g id="Слой_2" data-name="Слой 2"><g id="Слой_1-2" data-name="Слой 1"><path class="cls-1" d="M4.72,45.3h0A3.23,3.23,0,0,1,1.5,42.08V29.54a3.23,3.23,0,0,1,3.22-3.22h0a3.23,3.23,0,0,1,3.22,3.22V42.08A3.23,3.23,0,0,1,4.72,45.3Z"/><path class="cls-1" d="M54.36,45.3h0a3.23,3.23,0,0,1-3.22-3.22V29.54a3.23,3.23,0,0,1,3.22-3.22h0a3.23,3.23,0,0,1,3.22,3.22V42.08A3.23,3.23,0,0,1,54.36,45.3Z"/><path class="cls-1" d="M4.72,26.32a24.82,24.82,0,0,1,49.64,0"/><path class="cls-1" d="M52.33,45.3l-3.08,8.21a14.38,14.38,0,0,1-17.59,8.73h0"/><path class="cls-1" d="M33.31,60.88a3.77,3.77,0,1,1-3.77-3.77A3.77,3.77,0,0,1,33.31,60.88Z"/><line class="cls-1" x1="32.51" y1="46.31" x2="23.5" y2="46.31"/></g></g></svg>